<svg xmlns="http://www.w3.org/2000/svg" xmlns:xlink="http://www.w3.org/1999/xlink" version="1.1" x="0px" y="0px" viewBox="0 0 100 125" enable-background="new 0 0 100 100" xml:space="preserve"><path fill-rule="evenodd" clip-rule="evenodd" d="M72.778,15.542c0.233-0.3,0.55-0.316,0.95-0.05l7.35,5.95  c-0.533,0.899-1.15,1.1-1.85,0.6l-5.95-4.899c-0.267-0.267-0.434-0.467-0.5-0.601C72.544,16.143,72.544,15.809,72.778,15.542z   M76.778,23.442c1.133,0.8,2.017,1.566,2.65,2.3c0.767,0.833,1.15,1.783,1.15,2.85c-0.033,4.134-0.3,10.267-0.8,18.4  c-0.267,4.1-0.267,7.783,0,11.05c0.133,1.8,0.183,4.75,0.15,8.851c0,3.8,0.117,6.733,0.35,8.8c0.167,1.666,0.167,3.533,0,5.6  c-0.1,1.066-0.35,2.917-0.75,5.55c-0.3,1.733-1.233,2.817-2.8,3.25c-0.966,0.233-2.2,0.45-3.7,0.65c-0.8,0.1-2.034,0.25-3.7,0.45  c-2.367,0.366-5.4,0.517-9.1,0.45c-5.566-0.034-8.6-0.051-9.1-0.051c-7.333,0.101-13.9-0.383-19.7-1.449  c-0.7-0.134-1.317-0.15-1.85-0.051c-1.433,0.134-2.767-0.166-4-0.899c-0.867-0.533-1.933-1.5-3.2-2.9  c-1.167-1.267-1.934-2.767-2.3-4.5c-0.267-1.267-0.316-2.916-0.15-4.95c0.066-1.333,0.066-3.166,0-5.5  c-0.067-2.633-0.1-4.449-0.1-5.449c0.033-0.867-0.05-3.217-0.25-7.051c-0.1-2.933-0.017-5.316,0.25-7.149  c0.1-0.9,0.067-2.134-0.1-3.7c-0.133-1.833-0.2-3.083-0.2-3.75c0.1-5.066,0-12.634-0.3-22.7c-0.1-3.5,0.267-6.866,1.1-10.1  c0.167-0.8,0.35-1.351,0.55-1.65c0.333-0.467,0.883-0.733,1.65-0.8c-0.3,1.3-0.7,2.717-1.2,4.25c-0.566,1.7-0.85,3.75-0.85,6.15  c0,1.333,0.067,3.366,0.2,6.1c0.133,2.2,0.167,3.533,0.1,4c-0.133,0.733-0.184,1.6-0.15,2.6c0.033,0.601,0.116,1.5,0.25,2.7  c0.133,2.367,0.133,5.316,0,8.851c-0.034,1.5,0.033,3.8,0.2,6.899c0.6-0.233,1.45-0.816,2.55-1.75c0.966-0.833,1.816-1.333,2.55-1.5  c-0.434,0.467-1.067,1.184-1.9,2.15c-0.767,0.866-1.467,1.55-2.1,2.05c-0.934,0.667-1.35,1.65-1.25,2.95  c0.033,0.366,0.017,0.934-0.05,1.7c0,0.699,0.2,1.233,0.6,1.6c0.067-0.4,0.4-0.95,1-1.65c0.567-0.633,0.883-1.199,0.95-1.699  c0.033-0.2,0.15-0.317,0.35-0.351c0.2-0.033,0.383,0.017,0.55,0.15c0.267,0.133,0.267,0.416,0,0.85c-1,1.467-1.9,2.4-2.7,2.8  c-0.4,0.801-0.6,1.834-0.6,3.101c0.233,8.467,0.367,14.783,0.4,18.95c0.033,1.033,0.15,1.833,0.35,2.399  c0.2,0.8,0.65,1.434,1.35,1.9c0.233,0.2,0.4,0.616,0.5,1.25c0.033,0.566,0.25,0.95,0.65,1.149c0.833,0.534,1.466,0.917,1.9,1.15  c0.8,0.4,1.517,0.634,2.15,0.7c3.533,0.333,6.133,0.649,7.8,0.95c1.167,0.233,2.833,0.399,5,0.5c2.267,0.166,3.917,0.316,4.95,0.449  c1.167,0.034,2.05,0.101,2.65,0.2c1.567,0.134,2.867-0.45,3.9-1.75c0.633-0.767,1.45-1.649,2.45-2.649c1.2-1.067,2.1-1.884,2.7-2.45  c0.933-0.8,1.5-1.517,1.7-2.15c0.567,0.334,0.684,0.733,0.35,1.2c-0.433,0.6-1.05,1.25-1.85,1.95c-0.433,0.399-1.083,1-1.95,1.8  c-0.4,0.366-1,0.917-1.8,1.65c-0.7,0.699-1.283,1.399-1.75,2.1l6.8,0.3c0.633,0,1.15-0.283,1.55-0.85c0.467-0.767,1.35-1.9,2.65-3.4  c1.233-1.366,2.083-2.5,2.55-3.399c0.167-0.233,0.267-0.367,0.3-0.4c0.133-0.1,0.3-0.1,0.5,0c0.2,0.134,0.3,0.283,0.3,0.45  c-0.067,0.2-0.15,0.366-0.25,0.5l-5.5,6.85c1.8,0.5,3.767,0.483,5.9-0.05c0.6-0.1,1.017-0.4,1.25-0.9  c0.633-0.966,1.517-2.066,2.65-3.3c1.367-1.399,2.367-2.45,3-3.149l0.65-0.051c-0.367,1-1.267,2.2-2.7,3.601  c-1.467,1.399-2.434,2.583-2.9,3.55c2.1-0.033,3.633-0.116,4.6-0.25c1.633-0.233,2.983-0.866,4.05-1.9c0.433-0.433,0.7-1,0.8-1.699  c0.533-2.534,0.617-6.284,0.25-11.25c-0.2-1.867-0.3-4.184-0.3-6.95l-0.05-7c-0.1-3.4-0.167-5.934-0.2-7.601  c-0.067-2.966,0.017-5.533,0.25-7.699c0.167-1.567,0.283-3.817,0.35-6.75c0.1-3.134,0.217-5.417,0.35-6.851  c0.333-3.399-0.967-6.033-3.9-7.899c-3.667-2.4-7.517-5.834-11.55-10.301c-0.967-1.133-2.134-2.1-3.5-2.899  c-0.733-0.5-1.25-0.667-1.55-0.5c-0.267,0.133-0.4,0.684-0.4,1.649c0,1.434,0.033,2.5,0.1,3.2c0.2,1.434,0.25,3.55,0.15,6.351  c-0.133,2.8-0.117,4.883,0.05,6.25c0.067,0.733,0.184,1.8,0.35,3.199c0.1,1.733,0.217,2.667,0.35,2.801  c0.167,0.166,1.183,0.316,3.05,0.449c3.434,0.267,6.883,0,10.35-0.8c0.3-0.066,1.617-0.25,3.95-0.55c0.333,0,0.55,0.1,0.65,0.3  c0.233,0.367,0.117,0.667-0.35,0.9c-1.133,0.5-1.783,0.75-1.95,0.75c-0.833,0.033-3.134,0.333-6.9,0.899  c-2.8,0.434-5.117,0.45-6.95,0.051c-0.3-0.067-0.684-0.034-1.15,0.1c-0.267,0.033-0.667,0.1-1.2,0.2c-0.6,0.066-1.05-0.033-1.35-0.3  c-0.367-0.301-0.467-0.667-0.3-1.101c0.333-1.233,0.433-2.649,0.3-4.25c0-0.3-0.15-1.717-0.45-4.25  c-0.067-0.6-0.05-1.399,0.05-2.399c0.2-1.2,0.3-1.983,0.3-2.351c0-1.033-0.117-2.783-0.35-5.25c-0.167-2.233-0.217-3.983-0.15-5.25  c0.034-0.899-0.433-1.267-1.4-1.1c-0.733,0.1-2.017,0.133-3.85,0.1c-1.667-0.033-2.966,0.033-3.9,0.2c-0.4,0.134-0.933,0.134-1.6,0  c-0.8-0.134-1.316-0.2-1.55-0.2l-20.9-0.1c-0.367,0-0.55-0.15-0.55-0.45c0.067-0.333,0.184-0.566,0.35-0.7c0.333-0.3,1-0.45,2-0.45  c10.267-0.066,17.5,0.017,21.7,0.25c2.667,0.134,5.533,0,8.6-0.399c2.966-0.367,5.683,0.85,8.15,3.649c3,3.434,6.333,6.617,10,9.551  C75.261,22.292,76.178,22.976,76.778,23.442z M51.728,14.792c-1.8-0.399-3.933-0.55-6.4-0.45l-6.65,0.45  c-1.467,0.066-2.517-0.05-3.15-0.35c4.933-0.967,10.417-1.351,16.45-1.15c0.8,0,1.133,0.267,1,0.8  C52.811,14.726,52.395,14.959,51.728,14.792z M85.278,46.092c-0.1,0.867-0.184,3.134-0.25,6.801c-0.067,2.8-0.367,5.05-0.9,6.75  c-0.233,0.633-0.167,1.149,0.2,1.55c0.3,0.333,0.467,0.566,0.5,0.7c0.1,0.267-0.083,0.5-0.55,0.699c-0.9,0.301-1.417,0-1.55-0.899  l-0.1-1.4c0.533-2.434,0.866-5.233,1-8.399c0.066-1.267,0.1-2.2,0.1-2.801c0.034-1.133,0.017-2.066-0.05-2.8  c-0.167-0.866,0.066-1.333,0.7-1.399C85.145,44.858,85.444,45.259,85.278,46.092z M82.578,67.242c0.1-0.3,0.333-0.434,0.7-0.4  c0.333,0.034,0.517,0.2,0.55,0.5c0.033,0.134,0.033,0.384,0,0.75l-0.05,1.851c0,0.8-0.233,1.2-0.7,1.2c-0.267,0-0.467-0.134-0.6-0.4  c-0.066-0.1-0.133-0.384-0.2-0.85l-0.1-0.75l0.15-1.051C82.428,67.592,82.511,67.309,82.578,67.242z M47.828,5.992  c-6.1,0.1-11.183,0.05-15.25-0.15c4.533-0.733,9.833-0.983,15.9-0.75L47.828,5.992z M20.878,7.092c-2.2,1.034-3.417,2.75-3.65,5.15  c-0.033,0.2-0.033,0.583,0,1.15c-0.1,0.466-0.417,0.633-0.95,0.5c-0.434-0.067-0.7-0.317-0.8-0.75c0-0.233,0.067-0.65,0.2-1.25  c0.4-2.101,1.433-3.767,3.1-5c1.733-1.233,3.733-1.733,6-1.5C23.744,6.025,22.444,6.592,20.878,7.092z M16.678,23.393  c-0.067,0.633-0.184,1.566-0.35,2.8c-0.1,1.1-0.133,2.033-0.1,2.8c0,0.366-0.033,0.95-0.1,1.75c0.033,0.7,0.417,1.167,1.15,1.4  c0.2,0.033,0.267,0.166,0.2,0.399c-0.066,0.167-0.183,0.3-0.35,0.4c-0.967,0.533-1.65,0.416-2.05-0.351  c-0.2-0.399-0.316-0.916-0.35-1.55c-0.033-0.8-0.05-1.434-0.05-1.899l0.55-6.051c0.067-0.8,0.367-1.133,0.9-1  C16.561,22.192,16.744,22.626,16.678,23.393z M31.178,64.143c-0.9,1.133-3.434,3.75-7.6,7.85c0.767-1.6,2.184-3.5,4.25-5.7  c2.4-2.6,3.983-4.45,4.75-5.55C32.511,61.909,32.044,63.042,31.178,64.143z M36.128,69.742c-1.233,1.233-3.05,3.066-5.45,5.5  c-2.133,2.134-4.083,3.934-5.85,5.4c0.8-1.601,2.617-3.733,5.45-6.4C33.078,71.542,35.028,70.042,36.128,69.742z M26.528,60.592  c-1.1,0.867-2.6,2.334-4.5,4.4c0.233-0.934,0.767-1.884,1.6-2.85c0.966-1.067,1.667-1.9,2.1-2.5c0.067-0.101,0.217-0.15,0.45-0.15  s0.4,0.066,0.5,0.2C26.944,60.059,26.895,60.358,26.528,60.592z M25.628,94.393c0-0.534,0.3-0.801,0.9-0.801  c0.433,0.101,0.783,0.15,1.05,0.15c3.267,0.2,6.1,0.116,8.5-0.25c0.934-0.167,2.133-0.217,3.6-0.15  c1.667,0.067,2.933,0.101,3.8,0.101c-0.267,0.899-0.9,1.35-1.9,1.35l-14.65,0.2l-0.55-0.05  C25.878,94.942,25.628,94.759,25.628,94.393z M43.028,82.942c-1.9,2.133-3.667,3.85-5.3,5.149c3.233-4.333,6.583-7.933,10.05-10.8  C46.711,78.525,45.128,80.409,43.028,82.942z M45.628,89.893c0.167-1.233,1.216-3.034,3.15-5.4c2-2.366,3.6-3.8,4.8-4.3  c-0.8,1.166-2.1,2.767-3.9,4.8C47.778,87.059,46.428,88.692,45.628,89.893z M35.428,80.192c-3.133,3.3-5.5,5.267-7.1,5.899  c6.067-6.1,10.15-10.399,12.25-12.899C40.311,74.559,38.594,76.893,35.428,80.192z"/></svg>