<svg xmlns="http://www.w3.org/2000/svg" xmlns:xlink="http://www.w3.org/1999/xlink" version="1.2" baseProfile="tiny" x="0px" y="0px" viewBox="0 0 100 125" xml:space="preserve"><path d="M90.071,5.14c-0.319-0.209-0.717-0.135-0.909-0.085c-4.266,1.766-7.563,3.764-9.891,5.372  c-4.166,2.877-6.925,5.674-9.322,8.128c-3.346,3.426-2.089,2.74-7.105,8.242c0,0-3.783,4.15-7.389,9.606  c-0.314,0.475-0.964,1.491-1.307,2.956c-0.198,0.846-0.231,1.568-0.227,2.046c-0.658,0.049-1.616,0.189-2.672,0.625  c-1.663,0.687-2.511,1.674-3.695,2.785c-1.002,0.941-2.43,1.953-5.286,3.979c-2.853,2.023-4.28,3.035-5.4,3.354  c-1.764,0.502-3.454,0.304-6.764-0.114c-3.804-0.48-4.212-0.895-5.855-1.023c-3.956-0.308-8.846,1.539-11.994,5.457  C8.103,61.635,9.172,67.677,9.411,68.86c0.353,1.749,1.173,5.804,4.832,8.128c3.511,2.23,7.339,1.408,8.072,1.25  c1.599-0.344,3.431-1.108,8.64-5.968c1.548-1.445,3.431-3.285,7.333-7.503c5.343-5.776,6.514-7.408,9.72-10.118  c2.166-1.831,4.081-3.155,5.343-3.979c-0.666,1.07-1.737,2.68-3.24,4.491c-1.781,2.145-3.299,3.526-4.093,4.263  c-2.366,2.199-1.587,1.743-10.175,10.971c-5.255,5.646-5.839,6.131-6.651,7.901c-0.877,1.912-2.785,6.072-1.023,10.175  c2.3,5.358,9.005,6.305,9.947,6.423c5.318,0.669,10.472-1.896,13.301-5.798c0.312-0.43,2.615-3.695,2.672-8.128  c0.037-2.928-0.943-3.451-1.421-7.958c-0.292-2.754-0.538-5.064,0.284-7.731c0.927-3.007,2.799-5.129,4.348-6.48  c0.143,0.203,0.389,0.303,0.625,0.256c0.329-0.066,0.449-0.381,0.455-0.398c0.582-0.825,1.457-2.045,2.558-3.496  c2.354-3.103,4.169-5.193,7.645-9.18c3.08-3.532,4.65-5.328,6.139-6.764c1.588-1.532,2.275-2.042,3.979-3.78  c2.568-2.618,4.296-4.811,4.69-5.315c2.789-3.569,4.662-5.966,5.968-9.692c0.848-2.419,0.183-1.763,1.478-8.953  c0,0,0.237-1.315-0.313-5.428C90.497,5.839,90.427,5.374,90.071,5.14z M39.367,61.13c-1.766,1.988-3.44,4.009-6.537,7.276  c-1.079,1.138-2.235,2.255-4.547,4.491c-2.682,2.592-3.149,2.946-3.865,3.297c-3.249,1.591-6.506,0.612-6.821,0.512  c-3.167-1.004-4.72-3.421-5.173-4.149c-1.655-2.664-1.523-5.319-1.421-7.39c0.094-1.896,0.231-4.674,2.103-7.389  c1.925-2.792,5.163-4.763,8.469-5.116c1.398-0.149,4.04,0.393,9.322,1.478c1.961,0.403,3.541,0.775,5.514,0.227  c0.344-0.095,1.188-0.354,3.581-1.819c1.276-0.781,2.809-1.792,4.491-3.07c1.099,1.023,2.198,2.046,3.297,3.07  C44.081,55.98,41.286,58.969,39.367,61.13z M51.361,49.704c-0.826,0.539-1.463,1.109-1.933,1.592  c-1.042-0.909-2.084-1.819-3.126-2.728c0.69-0.97,1.918-2.43,3.865-3.638c1.324-0.822,2.575-1.275,3.524-1.535  c-0.076,1.743-0.152,3.486-0.227,5.229C52.863,48.858,52.134,49.199,51.361,49.704z M52.612,62.153  c-0.708,1.223-2.281,3.94-2.274,7.446c0.004,2.148,0.596,1.895,1.421,6.935c0.545,3.332,0.454,4.467,0.341,5.229  c-0.158,1.061-0.58,2.897-1.819,4.775c-1.178,1.785-2.512,2.727-4.206,3.922c-1.529,1.079-2.544,1.795-4.15,2.274  c-2.522,0.751-4.645,0.362-5.627,0.171c-1.808-0.353-3.934-0.768-5.286-2.558c-0.847-1.121-0.997-2.262-1.194-3.752  c-0.459-3.487,0.445-6.237,0.625-6.764c0.792-2.318,1.96-3.769,5.116-7.219c3.789-4.143,6.841-7.231,7.39-7.787  c2.198-2.23,5.254-5.468,8.754-9.663c0.531,0.019,1.061,0.038,1.592,0.057c0.359,0.462,0.791,0.964,1.307,1.478  c0.493,0.491,0.976,0.905,1.421,1.251C55.063,58.812,53.749,60.188,52.612,62.153z M75.803,35.153  c-0.686,1.018-2.626,3.232-6.48,7.617c-3.797,4.321-4.439,5.001-6.025,6.878c-2.471,2.923-4.376,5.367-5.571,6.935  c-0.603-0.275-1.474-0.76-2.331-1.592c-0.718-0.697-1.184-1.403-1.478-1.933c1.113-2.312,1.384-4.201,1.421-5.514  c0.042-1.504-0.209-2.754,0-5.4c0.078-0.99,0.123-1.556,0.284-2.274c0.457-2.037,1.478-3.642,2.501-4.832  c5.015-6.182,9.421-11.165,12.846-14.893c2.712-2.952,4.969-5.291,8.413-7.731c3.233-2.29,6.217-3.752,8.356-4.661  c-0.914,1.94-2.33,5.067-3.865,9.038c-1.643,4.25-1.866,5.439-3.411,9.095C78.869,29.662,77.805,32.18,75.803,35.153z M86.66,21.397  c-2.28,5.335-5.724,8.598-7.56,10.118c0.91-1.383,2.229-3.586,3.411-6.48c1.08-2.646,1.355-4.18,2.16-6.651  c0.723-2.219,1.951-5.426,4.093-9.208C88.912,11.546,88.888,16.183,86.66,21.397z"/><path d="M62.161,37.938c-1.772,0.067-3.037,1.711-3.07,3.354c-0.034,1.712,1.271,3.333,2.899,3.467  c1.954,0.161,3.711-1.875,3.467-3.865C65.271,39.363,63.902,37.872,62.161,37.938z M62.218,42.542  c-0.71,0.043-1.361-0.507-1.478-1.194c-0.145-0.854,0.573-1.709,1.421-1.705c0.65,0.003,1.233,0.509,1.364,1.137  C63.695,41.596,63.074,42.491,62.218,42.542z"/><path d="M23.849,55.502c-2.426-0.243-4.275,0.448-5.173,0.796c-1.338,0.518-3.431,1.328-4.718,3.411  c-0.729,1.18-0.896,2.276-1.137,3.865c-0.169,1.113-0.385,2.623,0,4.491c0.27,1.31,0.564,2.74,1.705,3.922  c1.982,2.054,5.057,1.841,6.196,1.762c2.202-0.152,3.821-1.022,4.775-1.535c1.038-0.558,1.977-1.062,2.842-2.046  c1.719-1.955,1.866-4.343,1.99-6.366c0.16-2.62,0.262-4.284-0.853-5.798C27.937,55.912,25.203,55.638,23.849,55.502z M28.226,65.563  c-0.435,2.822-2.532,5.83-5.798,6.537c-2.714,0.588-6.08-0.445-7.219-2.728c-0.565-1.132-0.428-2.261-0.227-3.922  c0.167-1.378,0.395-3.271,1.819-5.059c0.536-0.673,1.936-2.431,4.434-2.785c0.344-0.049,2.791-0.356,4.832,1.307  C28.836,61.171,28.315,64.989,28.226,65.563z"/><path d="M41.698,72.441c-2.687,0.346-4.405,1.939-5.684,3.126c-1.029,0.955-2.72,2.524-3.524,5.173  c-0.344,1.134-1.455,4.791,0.739,7.503c2.176,2.69,5.937,2.392,6.707,2.331c3.661-0.29,5.869-2.778,6.48-3.467  c2.296-2.588,2.59-5.485,2.672-6.423c0.148-1.706,0.425-4.895-1.762-6.878C45.308,71.977,42.483,72.34,41.698,72.441z   M47.268,81.707c-0.564,2.8-2.556,5.815-5.798,6.878c-0.462,0.152-4.468,1.402-6.707-0.909c-1.721-1.776-1.291-4.513-1.08-5.855  c0.112-0.711,0.569-3.366,2.842-5.457c2.112-1.942,6.305-3.869,8.981-1.933C48.251,76.417,47.406,81.023,47.268,81.707z"/></svg>