<svg xmlns="http://www.w3.org/2000/svg" data-name="Layer 1" viewBox="0 0 100 125" x="0px" y="0px"><path d="M82.34,45.46l-.08-2.2a16.72,16.72,0,0,0-.89-4.9,1.92,1.92,0,0,0-.27-.78l-.06-.1a16.72,16.72,0,0,0-5.5-7.11l-.12-.09c-.39-.28-.78-.56-1.2-.81l-24.66-15a15.89,15.89,0,0,0-19.2,2l-7.14,6.8a18.37,18.37,0,0,0-3.88,5.34,1.74,1.74,0,0,0-.27.45c0,.1-.05.2-.08.3a18.7,18.7,0,0,0-1.11,11.43C21,54.72,25,72.06,26.37,75.58c1.07,2.7,4.83,5.86,11.49,9.67a19.92,19.92,0,0,0,16.82,1.42C76,78.86,77.86,76.26,78.48,75.4,83.16,69,82.7,56,82.34,45.46ZM25.84,26,33,19.22a12.09,12.09,0,0,1,14.6-1.56L72.24,32.71c.34.21.66.45,1,.68l.68.71a.14.14,0,0,1,0,.15.15.15,0,0,1-.07.12l-.86.47L56,43.7a11.82,11.82,0,0,0-1.19.73l-1.59,1a.58.58,0,0,1-.62,0l-2-1.29a9.8,9.8,0,0,0-1.1-.6L23,31.36a.76.76,0,0,1-.42-.74l0,0a1.85,1.85,0,0,0,.21-.45A14.83,14.83,0,0,1,25.84,26ZM29.9,74.18c-1-2.53-4-15-8.31-34.22a14.75,14.75,0,0,1-.2-5.17l0,0L47.86,46.94a4.63,4.63,0,0,1,.54.29l0,0,.13.08a5.28,5.28,0,0,1,2.21,3.1c0,.18-.09.36-.12.54L45.1,83.85A16.1,16.1,0,0,1,39.75,82C31.85,77.44,30.23,75,29.9,74.18Zm45.52-1c-.19.26-2.43,2.74-22.05,10a16.43,16.43,0,0,1-4.45.93L54.4,51.6c0-.11.05-.21.07-.32a1.66,1.66,0,0,0,.14-.54,6.34,6.34,0,0,1,2.26-3.13l.77-.46.14-.1,15.74-8.19c.06,0,.13,0,.2-.08l1.06-.58,1.69-.88,1.12,1.8a13.26,13.26,0,0,1,.88,4.26l.07,2.21C78.87,55,79.32,67.84,75.42,73.16ZM42.83,80.84a1.5,1.5,0,0,1,0-3A1.5,1.5,0,0,1,42.83,80.84Zm1-4.84a1,1,0,0,1,0-2A1,1,0,0,1,43.81,76Z"/></svg>